<?xml version="1.0" encoding="UTF-8" standalone="no"?>
<!DOCTYPE svg PUBLIC "-//W3C//DTD SVG 20010904//EN" "http://www.w3.org/TR/2001/REC-SVG-20010904/DTD/svg10.dtd">
<svg version="1.0" xmlns="http://www.w3.org/2000/svg" width="16.000000pt" height="16.000000pt" viewBox="0 0 16.000000 16.000000" preserveAspectRatio="xMidYMid meet">
<metadata>
Created by potrace 1.11, written by Peter Selinger 2001-2013
</metadata>
<g transform="translate(0.000000,16.000000) scale(0.018605,-0.018605)" fill="#000000" stroke="none">
<path d="M235 763 c-225 -52 -305 -251 -155 -386 52 -47 53 -56 3 -106 -52 -54 8 -60 115 -12 55 24 78 29 127 27 278 -13 455 230 283 390 -94 88 -233 120 -373 87z"/>
<path d="M735 550 c8 -132 -69 -237 -217 -298 -48 -19 -82 -26 -140 -26 -43 -1 -78 -4 -78 -7 0 -10 99 -46 145 -54 22 -4 69 -7 104 -6 45 1 74 -5 100 -18 75 -40 151 -53 151 -27 0 8 -4 16 -8 18 -4 2 -20 19 -35 39 l-27 36 24 17 c131 85 140 243 19 343 l-41 34 3 -51z"/>
</g>
</svg>